<?xml version="1.0" encoding="utf-8"?><svg width="auto" height="3570" style="overflow:visible " version="1.1" xmlns="http://www.w3.org/2000/svg"><rect x="20" y="20" width="200" height="40" style="fill:white;stroke:black;stroke-width:1" /><text x="30" y="30" font-size="10" style="fill:blue">rutas</text><text x="30" y="40" font-size="8" style="fill:black">xmlns: http://tempuri.org/rutas</text><text x="30" y="50" font-size="8" style="fill:black">xmlns:xsi: http://www.w3.org/2001/XMLSchema-instance</text><text x="30" y="60" font-size="8" style="fill:black">xsi:schemaLocation: http://tempuri.org/rutas rutas.xsd</text><rect x="240" y="20" width="200" height="40" style="fill:white;stroke:black;stroke-width:1" /><text x="250" y="30" font-size="10" style="fill:blue">ruta</text><path d="M220 40 C240 40 220 40 240 40" style="fill:transparent;stroke:black" /><text x="250" y="40" font-size="8" style="fill:black">nombre: Ruta de la seda</text><text x="250" y="50" font-size="8" style="fill:black">tipo: Senderismo</text><text x="250" y="60" font-size="8" style="fill:black">medio: En coche</text><text x="250" y="70" font-size="8" style="fill:black">horaInicio: 09:00:00</text><text x="250" y="80" font-size="8" style="fill:black">horaFin: 13:00:00</text><text x="250" y="90" font-size="8" style="fill:black">duracion: 28</text><text x="250" y="100" font-size="8" style="fill:black">agencia: trivago</text><text x="250" y="110" font-size="8" style="fill:black">adecuadas: Personas en buena forma fisica</text><text x="250" y="120" font-size="8" style="fill:black">lugarInicio: Torre de Burana</text><text x="250" y="130" font-size="8" style="fill:black">dirInicio: 54 Борончиева, Tokmok, Kirguistán</text><text x="250" y="140" font-size="8" style="fill:black">recomendacion: 9</text><rect x="460" y="20" width="200" height="40" style="fill:white;stroke:black;stroke-width:1" /><text x="470" y="30" font-size="10" style="fill:blue">descripcion</text><path d="M440 40 C460 40 440 40 460 40" style="fill:transparent;stroke:black" /><rect x="526" y="20" width="137" height="40" style="fill:green;stroke:black;stroke-width:1" /><text x="536" y="30" font-size="8" style="fill:white">Sucesión interminable de cumbres nevadas y pastos verdes a sus pies</text><rect x="460" y="70" width="200" height="40" style="fill:white;stroke:black;stroke-width:1" /><text x="470" y="80" font-size="10" style="fill:blue">coordenada</text><path d="M440 40 C460 40 440 90 460 90" style="fill:transparent;stroke:black" /><text x="470" y="90" font-size="8" style="fill:black">longitud: 75.2502</text><text x="470" y="100" font-size="8" style="fill:black">latitud: 42.7464</text><text x="470" y="110" font-size="8" style="fill:black">altura: 2800</text><rect x="460" y="120" width="200" height="40" style="fill:white;stroke:black;stroke-width:1" /><text x="470" y="130" font-size="10" style="fill:blue">referencias</text><path d="M440 40 C460 40 440 140 460 140" style="fill:transparent;stroke:black" /><rect x="680" y="120" width="200" height="40" style="fill:white;stroke:black;stroke-width:1" /><text x="690" y="130" font-size="10" style="fill:blue">referencia</text><path d="M660 140 C680 140 660 140 680 140" style="fill:transparent;stroke:black" /><text x="690" y="140" font-size="8" style="fill:black">link: https://www.lavanguardia.com/magazine/experiencias/20210721/7609858/kirguistan-respirar-pleno-pulmon-joya-desconocida-ruta-seda.html</text><rect x="680" y="170" width="200" height="40" style="fill:white;stroke:black;stroke-width:1" /><text x="690" y="180" font-size="10" style="fill:blue">referencia</text><path d="M660 140 C680 140 660 190 680 190" style="fill:transparent;stroke:black" /><text x="690" y="190" font-size="8" style="fill:black">link: https://www.pasonoroeste.com/viaje/kirguistan/la-ruta-de-la-seda/</text><rect x="680" y="220" width="200" height="40" style="fill:white;stroke:black;stroke-width:1" /><text x="690" y="230" font-size="10" style="fill:blue">referencia</text><path d="M660 140 C680 140 660 240 680 240" style="fill:transparent;stroke:black" /><text x="690" y="240" font-size="8" style="fill:black">link: https://www.advantour.com/es/ruta-de-la-seda/kirguistan.htm</text><rect x="460" y="320" width="200" height="40" style="fill:white;stroke:black;stroke-width:1" /><text x="470" y="330" font-size="10" style="fill:blue">hitos</text><path d="M440 40 C460 40 440 340 460 340" style="fill:transparent;stroke:black" /><rect x="680" y="320" width="200" height="40" style="fill:white;stroke:black;stroke-width:1" /><text x="690" y="330" font-size="10" style="fill:blue">hito</text><path d="M660 340 C680 340 660 340 680 340" style="fill:transparent;stroke:black" /><text x="690" y="340" font-size="8" style="fill:black">nombre: Torre de Burana</text><text x="690" y="350" font-size="8" style="fill:black">descripcion: Esta torre solía ser parte de la Antigua ciudad de Balasagun (entre el siglo XI y XIII) y hoy en día es parte de los Sitios de Patrimonio Mundial UNESCO</text><text x="690" y="360" font-size="8" style="fill:black">distancia: 0</text><rect x="900" y="320" width="200" height="40" style="fill:white;stroke:black;stroke-width:1" /><text x="910" y="330" font-size="10" style="fill:blue">coordenada</text><path d="M880 340 C900 340 880 340 900 340" style="fill:transparent;stroke:black" /><text x="910" y="340" font-size="8" style="fill:black">longitud: 75.2502</text><text x="910" y="350" font-size="8" style="fill:black">latitud: 42.7464</text><text x="910" y="360" font-size="8" style="fill:black">altura: 2800</text><rect x="900" y="370" width="200" height="40" style="fill:white;stroke:black;stroke-width:1" /><text x="910" y="380" font-size="10" style="fill:blue">fotos</text><path d="M880 340 C900 340 880 390 900 390" style="fill:transparent;stroke:black" /><rect x="1120" y="370" width="200" height="40" style="fill:white;stroke:black;stroke-width:1" /><text x="1130" y="380" font-size="10" style="fill:blue">foto</text><path d="M1100 390 C1120 390 1100 390 1120 390" style="fill:transparent;stroke:black" /><text x="1130" y="390" font-size="8" style="fill:black">link: multimedia/imagenes/rutas/torreBurana.jpg</text><rect x="900" y="470" width="200" height="40" style="fill:white;stroke:black;stroke-width:1" /><text x="910" y="480" font-size="10" style="fill:blue">videos</text><path d="M880 340 C900 340 880 490 900 490" style="fill:transparent;stroke:black" /><rect x="680" y="570" width="200" height="40" style="fill:white;stroke:black;stroke-width:1" /><text x="690" y="580" font-size="10" style="fill:blue">hito</text><path d="M660 340 C680 340 660 590 680 590" style="fill:transparent;stroke:black" /><text x="690" y="590" font-size="8" style="fill:black">nombre: Mausoleo Shah-Fazil</text><text x="690" y="600" font-size="8" style="fill:black">descripcion: </text><text x="690" y="610" font-size="8" style="fill:black">distancia: 732</text><rect x="900" y="570" width="200" height="40" style="fill:white;stroke:black;stroke-width:1" /><text x="910" y="580" font-size="10" style="fill:blue">coordenada</text><path d="M880 590 C900 590 880 590 900 590" style="fill:transparent;stroke:black" /><text x="910" y="590" font-size="8" style="fill:black">longitud: 71.6589</text><text x="910" y="600" font-size="8" style="fill:black">latitud: 41.4286</text><text x="910" y="610" font-size="8" style="fill:black">altura: 4484</text><rect x="900" y="620" width="200" height="40" style="fill:white;stroke:black;stroke-width:1" /><text x="910" y="630" font-size="10" style="fill:blue">fotos</text><path d="M880 590 C900 590 880 640 900 640" style="fill:transparent;stroke:black" /><rect x="1120" y="620" width="200" height="40" style="fill:white;stroke:black;stroke-width:1" /><text x="1130" y="630" font-size="10" style="fill:blue">foto</text><path d="M1100 640 C1120 640 1100 640 1120 640" style="fill:transparent;stroke:black" /><text x="1130" y="640" font-size="8" style="fill:black">link: multimedia/imagenes/rutas/shah-Fazil1.jpg</text><rect x="1120" y="670" width="200" height="40" style="fill:white;stroke:black;stroke-width:1" /><text x="1130" y="680" font-size="10" style="fill:blue">foto</text><path d="M1100 640 C1120 640 1100 690 1120 690" style="fill:transparent;stroke:black" /><text x="1130" y="690" font-size="8" style="fill:black">link: multimedia/imagenes/rutas/shah-Fazil2.jpg</text><rect x="900" y="770" width="200" height="40" style="fill:white;stroke:black;stroke-width:1" /><text x="910" y="780" font-size="10" style="fill:blue">videos</text><path d="M880 590 C900 590 880 790 900 790" style="fill:transparent;stroke:black" /><rect x="680" y="870" width="200" height="40" style="fill:white;stroke:black;stroke-width:1" /><text x="690" y="880" font-size="10" style="fill:blue">hito</text><path d="M660 340 C680 340 660 890 680 890" style="fill:transparent;stroke:black" /><text x="690" y="890" font-size="8" style="fill:black">nombre: Tash Rabat</text><text x="690" y="900" font-size="8" style="fill:black">descripcion: Antiguo caravasar, en piedra y bien conservado</text><text x="690" y="910" font-size="8" style="fill:black">distancia: 611</text><rect x="900" y="870" width="200" height="40" style="fill:white;stroke:black;stroke-width:1" /><text x="910" y="880" font-size="10" style="fill:blue">coordenada</text><path d="M880 890 C900 890 880 890 900 890" style="fill:transparent;stroke:black" /><text x="910" y="890" font-size="8" style="fill:black">longitud: 75.2683</text><text x="910" y="900" font-size="8" style="fill:black">latitud: 40.8775</text><text x="910" y="910" font-size="8" style="fill:black">altura: 3752</text><rect x="900" y="920" width="200" height="40" style="fill:white;stroke:black;stroke-width:1" /><text x="910" y="930" font-size="10" style="fill:blue">fotos</text><path d="M880 890 C900 890 880 940 900 940" style="fill:transparent;stroke:black" /><rect x="1120" y="920" width="200" height="40" style="fill:white;stroke:black;stroke-width:1" /><text x="1130" y="930" font-size="10" style="fill:blue">foto</text><path d="M1100 940 C1120 940 1100 940 1120 940" style="fill:transparent;stroke:black" /><text x="1130" y="940" font-size="8" style="fill:black">link: multimedia/imagenes/rutas/tashRabat.JPG</text><rect x="900" y="1020" width="200" height="40" style="fill:white;stroke:black;stroke-width:1" /><text x="910" y="1030" font-size="10" style="fill:blue">videos</text><path d="M880 890 C900 890 880 1040 900 1040" style="fill:transparent;stroke:black" /><rect x="240" y="1220" width="200" height="40" style="fill:white;stroke:black;stroke-width:1" /><text x="250" y="1230" font-size="10" style="fill:blue">ruta</text><path d="M220 40 C240 40 220 1240 240 1240" style="fill:transparent;stroke:black" /><text x="250" y="1240" font-size="8" style="fill:black">nombre: Ala-Archa National Park</text><text x="250" y="1250" font-size="8" style="fill:black">tipo: Senderismo</text><text x="250" y="1260" font-size="8" style="fill:black">medio: a pie</text><text x="250" y="1270" font-size="8" style="fill:black">horaInicio: 09:00:00</text><text x="250" y="1280" font-size="8" style="fill:black">horaFin: 15:00:00</text><text x="250" y="1290" font-size="8" style="fill:black">duracion: 6</text><text x="250" y="1300" font-size="8" style="fill:black">agencia: trivago</text><text x="250" y="1310" font-size="8" style="fill:black">adecuadas: personas buena forma fisica</text><text x="250" y="1320" font-size="8" style="fill:black">lugarInicio: Parque nacional Ala Archa</text><text x="250" y="1330" font-size="8" style="fill:black">dirInicio: Бишкек, Kirguistán</text><text x="250" y="1340" font-size="8" style="fill:black">recomendacion: 7</text><rect x="460" y="1220" width="200" height="40" style="fill:white;stroke:black;stroke-width:1" /><text x="470" y="1230" font-size="10" style="fill:blue">descripcion</text><path d="M440 1240 C460 1240 440 1240 460 1240" style="fill:transparent;stroke:black" /><rect x="526" y="1220" width="137" height="40" style="fill:green;stroke:black;stroke-width:1" /><text x="536" y="1230" font-size="8" style="fill:white">Ruta disfrutando de las preciosas vistas del Parque Nacional de Ala-Archa y el rio Ak-Sai.</text><rect x="460" y="1270" width="200" height="40" style="fill:white;stroke:black;stroke-width:1" /><text x="470" y="1280" font-size="10" style="fill:blue">coordenada</text><path d="M440 1240 C460 1240 440 1290 460 1290" style="fill:transparent;stroke:black" /><text x="470" y="1290" font-size="8" style="fill:black">longitud: 74.4803</text><text x="470" y="1300" font-size="8" style="fill:black">latitud: 42.6448</text><text x="470" y="1310" font-size="8" style="fill:black">altura: 2104</text><rect x="460" y="1320" width="200" height="40" style="fill:white;stroke:black;stroke-width:1" /><text x="470" y="1330" font-size="10" style="fill:blue">referencias</text><path d="M440 1240 C460 1240 440 1340 460 1340" style="fill:transparent;stroke:black" /><rect x="680" y="1320" width="200" height="40" style="fill:white;stroke:black;stroke-width:1" /><text x="690" y="1330" font-size="10" style="fill:blue">referencia</text><path d="M660 1340 C680 1340 660 1340 680 1340" style="fill:transparent;stroke:black" /><text x="690" y="1340" font-size="8" style="fill:black">link: https://es.wikiloc.com/rutas-senderismo/ala-archa-national-park-broken-heart-ak-sai-waterfall-40981382#wp-40981384</text><rect x="680" y="1370" width="200" height="40" style="fill:white;stroke:black;stroke-width:1" /><text x="690" y="1380" font-size="10" style="fill:blue">referencia</text><path d="M660 1340 C680 1340 660 1390 680 1390" style="fill:transparent;stroke:black" /><text x="690" y="1390" font-size="8" style="fill:black">link: https://www.alltrails.com/es/ruta/kyrgyzstan/chuy/ala-archa-to-ak-sai-racek-hut-and-glacier</text><rect x="680" y="1420" width="200" height="40" style="fill:white;stroke:black;stroke-width:1" /><text x="690" y="1430" font-size="10" style="fill:blue">referencia</text><path d="M660 1340 C680 1340 660 1440 680 1440" style="fill:transparent;stroke:black" /><text x="690" y="1440" font-size="8" style="fill:black">link: https://www.tripadvisor.es/Attraction_Review-g293948-d735790-Reviews-Ala_Archa_Gorge-Bishkek.html</text><rect x="460" y="1520" width="200" height="40" style="fill:white;stroke:black;stroke-width:1" /><text x="470" y="1530" font-size="10" style="fill:blue">hitos</text><path d="M440 1240 C460 1240 440 1540 460 1540" style="fill:transparent;stroke:black" /><rect x="680" y="1520" width="200" height="40" style="fill:white;stroke:black;stroke-width:1" /><text x="690" y="1530" font-size="10" style="fill:blue">hito</text><path d="M660 1540 C680 1540 660 1540 680 1540" style="fill:transparent;stroke:black" /><text x="690" y="1540" font-size="8" style="fill:black">nombre: Broken heart</text><text x="690" y="1550" font-size="8" style="fill:black">descripcion: Roca conocida como corazon roto</text><text x="690" y="1560" font-size="8" style="fill:black">distancia: 1.5</text><rect x="900" y="1520" width="200" height="40" style="fill:white;stroke:black;stroke-width:1" /><text x="910" y="1530" font-size="10" style="fill:blue">coordenada</text><path d="M880 1540 C900 1540 880 1540 900 1540" style="fill:transparent;stroke:black" /><text x="910" y="1540" font-size="8" style="fill:black">longitud: 74.4919</text><text x="910" y="1550" font-size="8" style="fill:black">latitud: 42.5561</text><text x="910" y="1560" font-size="8" style="fill:black">altura: 2387</text><rect x="900" y="1570" width="200" height="40" style="fill:white;stroke:black;stroke-width:1" /><text x="910" y="1580" font-size="10" style="fill:blue">fotos</text><path d="M880 1540 C900 1540 880 1590 900 1590" style="fill:transparent;stroke:black" /><rect x="1120" y="1570" width="200" height="40" style="fill:white;stroke:black;stroke-width:1" /><text x="1130" y="1580" font-size="10" style="fill:blue">foto</text><path d="M1100 1590 C1120 1590 1100 1590 1120 1590" style="fill:transparent;stroke:black" /><text x="1130" y="1590" font-size="8" style="fill:black">link: multimedia/imagenes/rutas/brokenHeart.jpg</text><rect x="900" y="1670" width="200" height="40" style="fill:white;stroke:black;stroke-width:1" /><text x="910" y="1680" font-size="10" style="fill:blue">videos</text><path d="M880 1540 C900 1540 880 1690 900 1690" style="fill:transparent;stroke:black" /><rect x="680" y="1770" width="200" height="40" style="fill:white;stroke:black;stroke-width:1" /><text x="690" y="1780" font-size="10" style="fill:blue">hito</text><path d="M660 1540 C680 1540 660 1790 680 1790" style="fill:transparent;stroke:black" /><text x="690" y="1790" font-size="8" style="fill:black">nombre: Waterfall</text><text x="690" y="1800" font-size="8" style="fill:black">descripcion: Cascada en la ruta</text><text x="690" y="1810" font-size="8" style="fill:black">distancia: 3.4</text><rect x="900" y="1770" width="200" height="40" style="fill:white;stroke:black;stroke-width:1" /><text x="910" y="1780" font-size="10" style="fill:blue">coordenada</text><path d="M880 1790 C900 1790 880 1790 900 1790" style="fill:transparent;stroke:black" /><text x="910" y="1790" font-size="8" style="fill:black">longitud: 74.5178</text><text x="910" y="1800" font-size="8" style="fill:black">latitud: 42.5462</text><text x="910" y="1810" font-size="8" style="fill:black">altura: 2782</text><rect x="900" y="1820" width="200" height="40" style="fill:white;stroke:black;stroke-width:1" /><text x="910" y="1830" font-size="10" style="fill:blue">fotos</text><path d="M880 1790 C900 1790 880 1840 900 1840" style="fill:transparent;stroke:black" /><rect x="1120" y="1820" width="200" height="40" style="fill:white;stroke:black;stroke-width:1" /><text x="1130" y="1830" font-size="10" style="fill:blue">foto</text><path d="M1100 1840 C1120 1840 1100 1840 1120 1840" style="fill:transparent;stroke:black" /><text x="1130" y="1840" font-size="8" style="fill:black">link: multimedia/imagenes/rutas/waterfall.jpg</text><rect x="900" y="1920" width="200" height="40" style="fill:white;stroke:black;stroke-width:1" /><text x="910" y="1930" font-size="10" style="fill:blue">videos</text><path d="M880 1790 C900 1790 880 1940 900 1940" style="fill:transparent;stroke:black" /><rect x="680" y="2020" width="200" height="40" style="fill:white;stroke:black;stroke-width:1" /><text x="690" y="2030" font-size="10" style="fill:blue">hito</text><path d="M660 1540 C680 1540 660 2040 680 2040" style="fill:transparent;stroke:black" /><text x="690" y="2040" font-size="8" style="fill:black">nombre: Tepshi Plato</text><text x="690" y="2050" font-size="8" style="fill:black">descripcion: Roca conocida como lugar con buena panorámica</text><text x="690" y="2060" font-size="8" style="fill:black">distancia: 2</text><rect x="900" y="2020" width="200" height="40" style="fill:white;stroke:black;stroke-width:1" /><text x="910" y="2030" font-size="10" style="fill:blue">coordenada</text><path d="M880 2040 C900 2040 880 2040 900 2040" style="fill:transparent;stroke:black" /><text x="910" y="2040" font-size="8" style="fill:black">longitud: 74.5033</text><text x="910" y="2050" font-size="8" style="fill:black">latitud: 42.5551</text><text x="910" y="2060" font-size="8" style="fill:black">altura: 2590</text><rect x="900" y="2070" width="200" height="40" style="fill:white;stroke:black;stroke-width:1" /><text x="910" y="2080" font-size="10" style="fill:blue">fotos</text><path d="M880 2040 C900 2040 880 2090 900 2090" style="fill:transparent;stroke:black" /><rect x="1120" y="2070" width="200" height="40" style="fill:white;stroke:black;stroke-width:1" /><text x="1130" y="2080" font-size="10" style="fill:blue">foto</text><path d="M1100 2090 C1120 2090 1100 2090 1120 2090" style="fill:transparent;stroke:black" /><text x="1130" y="2090" font-size="8" style="fill:black">link: multimedia/imagenes/rutas/tepshiPlato.jpg</text><rect x="900" y="2170" width="200" height="40" style="fill:white;stroke:black;stroke-width:1" /><text x="910" y="2180" font-size="10" style="fill:blue">videos</text><path d="M880 2040 C900 2040 880 2190 900 2190" style="fill:transparent;stroke:black" /><rect x="240" y="2370" width="200" height="40" style="fill:white;stroke:black;stroke-width:1" /><text x="250" y="2380" font-size="10" style="fill:blue">ruta</text><path d="M220 40 C240 40 220 2390 240 2390" style="fill:transparent;stroke:black" /><text x="250" y="2390" font-size="8" style="fill:black">nombre: Ala-Archa National Park</text><text x="250" y="2400" font-size="8" style="fill:black">tipo: Senderismo</text><text x="250" y="2410" font-size="8" style="fill:black">medio: a pie</text><text x="250" y="2420" font-size="8" style="fill:black">horaInicio: 09:00:00</text><text x="250" y="2430" font-size="8" style="fill:black">horaFin: 15:00:00</text><text x="250" y="2440" font-size="8" style="fill:black">duracion: 6</text><text x="250" y="2450" font-size="8" style="fill:black">agencia: trivago</text><text x="250" y="2460" font-size="8" style="fill:black">adecuadas: personas buena forma fisica</text><text x="250" y="2470" font-size="8" style="fill:black">lugarInicio: Parque nacional Ala Archa</text><text x="250" y="2480" font-size="8" style="fill:black">dirInicio: Бишкек, Kirguistán</text><text x="250" y="2490" font-size="8" style="fill:black">recomendacion: 7</text><rect x="460" y="2370" width="200" height="40" style="fill:white;stroke:black;stroke-width:1" /><text x="470" y="2380" font-size="10" style="fill:blue">descripcion</text><path d="M440 2390 C460 2390 440 2390 460 2390" style="fill:transparent;stroke:black" /><rect x="526" y="2370" width="137" height="40" style="fill:green;stroke:black;stroke-width:1" /><text x="536" y="2380" font-size="8" style="fill:white">Ruta disfrutando de las preciosas vistas del Parque Nacional de Ala-Archa y el rio Ak-Sai.</text><rect x="460" y="2420" width="200" height="40" style="fill:white;stroke:black;stroke-width:1" /><text x="470" y="2430" font-size="10" style="fill:blue">coordenada</text><path d="M440 2390 C460 2390 440 2440 460 2440" style="fill:transparent;stroke:black" /><text x="470" y="2440" font-size="8" style="fill:black">longitud: 74.4803</text><text x="470" y="2450" font-size="8" style="fill:black">latitud: 42.6448</text><text x="470" y="2460" font-size="8" style="fill:black">altura: 2104</text><rect x="460" y="2470" width="200" height="40" style="fill:white;stroke:black;stroke-width:1" /><text x="470" y="2480" font-size="10" style="fill:blue">referencias</text><path d="M440 2390 C460 2390 440 2490 460 2490" style="fill:transparent;stroke:black" /><rect x="680" y="2470" width="200" height="40" style="fill:white;stroke:black;stroke-width:1" /><text x="690" y="2480" font-size="10" style="fill:blue">referencia</text><path d="M660 2490 C680 2490 660 2490 680 2490" style="fill:transparent;stroke:black" /><text x="690" y="2490" font-size="8" style="fill:black">link: https://es.wikiloc.com/rutas-senderismo/ala-archa-national-park-broken-heart-ak-sai-waterfall-40981382#wp-40981384</text><rect x="680" y="2520" width="200" height="40" style="fill:white;stroke:black;stroke-width:1" /><text x="690" y="2530" font-size="10" style="fill:blue">referencia</text><path d="M660 2490 C680 2490 660 2540 680 2540" style="fill:transparent;stroke:black" /><text x="690" y="2540" font-size="8" style="fill:black">link: https://www.alltrails.com/es/ruta/kyrgyzstan/chuy/ala-archa-to-ak-sai-racek-hut-and-glacier</text><rect x="680" y="2570" width="200" height="40" style="fill:white;stroke:black;stroke-width:1" /><text x="690" y="2580" font-size="10" style="fill:blue">referencia</text><path d="M660 2490 C680 2490 660 2590 680 2590" style="fill:transparent;stroke:black" /><text x="690" y="2590" font-size="8" style="fill:black">link: https://www.tripadvisor.es/Attraction_Review-g293948-d735790-Reviews-Ala_Archa_Gorge-Bishkek.html</text><rect x="460" y="2670" width="200" height="40" style="fill:white;stroke:black;stroke-width:1" /><text x="470" y="2680" font-size="10" style="fill:blue">hitos</text><path d="M440 2390 C460 2390 440 2690 460 2690" style="fill:transparent;stroke:black" /><rect x="680" y="2670" width="200" height="40" style="fill:white;stroke:black;stroke-width:1" /><text x="690" y="2680" font-size="10" style="fill:blue">hito</text><path d="M660 2690 C680 2690 660 2690 680 2690" style="fill:transparent;stroke:black" /><text x="690" y="2690" font-size="8" style="fill:black">nombre: Broken heart</text><text x="690" y="2700" font-size="8" style="fill:black">descripcion: Roca conocida como corazon roto</text><text x="690" y="2710" font-size="8" style="fill:black">distancia: 1.5</text><rect x="900" y="2670" width="200" height="40" style="fill:white;stroke:black;stroke-width:1" /><text x="910" y="2680" font-size="10" style="fill:blue">coordenada</text><path d="M880 2690 C900 2690 880 2690 900 2690" style="fill:transparent;stroke:black" /><text x="910" y="2690" font-size="8" style="fill:black">longitud: 74.4919</text><text x="910" y="2700" font-size="8" style="fill:black">latitud: 42.5561</text><text x="910" y="2710" font-size="8" style="fill:black">altura: 2387</text><rect x="900" y="2720" width="200" height="40" style="fill:white;stroke:black;stroke-width:1" /><text x="910" y="2730" font-size="10" style="fill:blue">fotos</text><path d="M880 2690 C900 2690 880 2740 900 2740" style="fill:transparent;stroke:black" /><rect x="1120" y="2720" width="200" height="40" style="fill:white;stroke:black;stroke-width:1" /><text x="1130" y="2730" font-size="10" style="fill:blue">foto</text><path d="M1100 2740 C1120 2740 1100 2740 1120 2740" style="fill:transparent;stroke:black" /><text x="1130" y="2740" font-size="8" style="fill:black">link: multimedia/imagenes/rutas/brokenHeart.jpg</text><rect x="900" y="2820" width="200" height="40" style="fill:white;stroke:black;stroke-width:1" /><text x="910" y="2830" font-size="10" style="fill:blue">videos</text><path d="M880 2690 C900 2690 880 2840 900 2840" style="fill:transparent;stroke:black" /><rect x="680" y="2920" width="200" height="40" style="fill:white;stroke:black;stroke-width:1" /><text x="690" y="2930" font-size="10" style="fill:blue">hito</text><path d="M660 2690 C680 2690 660 2940 680 2940" style="fill:transparent;stroke:black" /><text x="690" y="2940" font-size="8" style="fill:black">nombre: Waterfall</text><text x="690" y="2950" font-size="8" style="fill:black">descripcion: Cascada en la ruta</text><text x="690" y="2960" font-size="8" style="fill:black">distancia: 3.4</text><rect x="900" y="2920" width="200" height="40" style="fill:white;stroke:black;stroke-width:1" /><text x="910" y="2930" font-size="10" style="fill:blue">coordenada</text><path d="M880 2940 C900 2940 880 2940 900 2940" style="fill:transparent;stroke:black" /><text x="910" y="2940" font-size="8" style="fill:black">longitud: 74.5178</text><text x="910" y="2950" font-size="8" style="fill:black">latitud: 42.5462</text><text x="910" y="2960" font-size="8" style="fill:black">altura: 2782</text><rect x="900" y="2970" width="200" height="40" style="fill:white;stroke:black;stroke-width:1" /><text x="910" y="2980" font-size="10" style="fill:blue">fotos</text><path d="M880 2940 C900 2940 880 2990 900 2990" style="fill:transparent;stroke:black" /><rect x="1120" y="2970" width="200" height="40" style="fill:white;stroke:black;stroke-width:1" /><text x="1130" y="2980" font-size="10" style="fill:blue">foto</text><path d="M1100 2990 C1120 2990 1100 2990 1120 2990" style="fill:transparent;stroke:black" /><text x="1130" y="2990" font-size="8" style="fill:black">link: multimedia/imagenes/rutas/waterfall.jpg</text><rect x="900" y="3070" width="200" height="40" style="fill:white;stroke:black;stroke-width:1" /><text x="910" y="3080" font-size="10" style="fill:blue">videos</text><path d="M880 2940 C900 2940 880 3090 900 3090" style="fill:transparent;stroke:black" /><rect x="680" y="3170" width="200" height="40" style="fill:white;stroke:black;stroke-width:1" /><text x="690" y="3180" font-size="10" style="fill:blue">hito</text><path d="M660 2690 C680 2690 660 3190 680 3190" style="fill:transparent;stroke:black" /><text x="690" y="3190" font-size="8" style="fill:black">nombre: Tepshi Plato</text><text x="690" y="3200" font-size="8" style="fill:black">descripcion: Roca conocida como lugar con buena panorámica</text><text x="690" y="3210" font-size="8" style="fill:black">distancia: 2</text><rect x="900" y="3170" width="200" height="40" style="fill:white;stroke:black;stroke-width:1" /><text x="910" y="3180" font-size="10" style="fill:blue">coordenada</text><path d="M880 3190 C900 3190 880 3190 900 3190" style="fill:transparent;stroke:black" /><text x="910" y="3190" font-size="8" style="fill:black">longitud: 74.5033</text><text x="910" y="3200" font-size="8" style="fill:black">latitud: 42.5551</text><text x="910" y="3210" font-size="8" style="fill:black">altura: 2590</text><rect x="900" y="3220" width="200" height="40" style="fill:white;stroke:black;stroke-width:1" /><text x="910" y="3230" font-size="10" style="fill:blue">fotos</text><path d="M880 3190 C900 3190 880 3240 900 3240" style="fill:transparent;stroke:black" /><rect x="1120" y="3220" width="200" height="40" style="fill:white;stroke:black;stroke-width:1" /><text x="1130" y="3230" font-size="10" style="fill:blue">foto</text><path d="M1100 3240 C1120 3240 1100 3240 1120 3240" style="fill:transparent;stroke:black" /><text x="1130" y="3240" font-size="8" style="fill:black">link: multimedia/imagenes/rutas/tepshiPlato.jpg</text><rect x="900" y="3320" width="200" height="40" style="fill:white;stroke:black;stroke-width:1" /><text x="910" y="3330" font-size="10" style="fill:blue">videos</text><path d="M880 3190 C900 3190 880 3340 900 3340" style="fill:transparent;stroke:black" /></svg>